<mxfile host="app.diagrams.net" modified="2023-01-23T15:32:26.176Z" agent="5.0 (Windows)" etag="EPDlLbdig76YDAdPOa9a" version="20.8.10" type="github">
  <diagram name="Page-1" id="74b105a0-9070-1c63-61bc-23e55f88626e">
    <mxGraphModel dx="1434" dy="711" grid="1" gridSize="10" guides="1" tooltips="1" connect="1" arrows="1" fold="1" page="1" pageScale="1.5" pageWidth="1169" pageHeight="826" background="none" math="0" shadow="0">
      <root>
        <mxCell id="0" style=";html=1;" />
        <mxCell id="1" style=";html=1;" parent="0" />
        <mxCell id="0h7r7lTIpDEuKQg1K8eG-12" value="&lt;div align=&quot;left&quot;&gt;Database&lt;/div&gt;" style="rounded=1;whiteSpace=wrap;html=1;fillColor=#f8cecc;strokeColor=#b85450;align=left;" vertex="1" parent="1">
          <mxGeometry x="537" y="220" width="723" height="350" as="geometry" />
        </mxCell>
        <mxCell id="10b056a9c633e61c-30" value="Title" style="text;strokeColor=none;fillColor=none;html=1;fontSize=24;fontStyle=1;verticalAlign=middle;align=center;" parent="1" vertex="1">
          <mxGeometry x="80" y="40" width="1590" height="40" as="geometry" />
        </mxCell>
        <mxCell id="0h7r7lTIpDEuKQg1K8eG-1" value="Match" style="rounded=1;whiteSpace=wrap;html=1;fillColor=#dae8fc;strokeColor=#6c8ebf;" vertex="1" parent="1">
          <mxGeometry x="600" y="390" width="120" height="40" as="geometry" />
        </mxCell>
        <mxCell id="0h7r7lTIpDEuKQg1K8eG-32" style="edgeStyle=orthogonalEdgeStyle;rounded=0;orthogonalLoop=1;jettySize=auto;html=1;" edge="1" parent="1" source="0h7r7lTIpDEuKQg1K8eG-2" target="0h7r7lTIpDEuKQg1K8eG-4">
          <mxGeometry relative="1" as="geometry" />
        </mxCell>
        <mxCell id="0h7r7lTIpDEuKQg1K8eG-2" value="User" style="whiteSpace=wrap;html=1;aspect=fixed;" vertex="1" parent="1">
          <mxGeometry x="230" y="370" width="80" height="80" as="geometry" />
        </mxCell>
        <mxCell id="0h7r7lTIpDEuKQg1K8eG-33" style="edgeStyle=orthogonalEdgeStyle;rounded=0;orthogonalLoop=1;jettySize=auto;html=1;exitX=0;exitY=0.5;exitDx=0;exitDy=0;" edge="1" parent="1" source="0h7r7lTIpDEuKQg1K8eG-4" target="0h7r7lTIpDEuKQg1K8eG-2">
          <mxGeometry relative="1" as="geometry" />
        </mxCell>
        <mxCell id="0h7r7lTIpDEuKQg1K8eG-4" value="input game stats" style="shape=process;whiteSpace=wrap;html=1;backgroundOutline=1;" vertex="1" parent="1">
          <mxGeometry x="390" y="380" width="120" height="60" as="geometry" />
        </mxCell>
        <mxCell id="0h7r7lTIpDEuKQg1K8eG-5" value="" style="shape=flexArrow;endArrow=classic;html=1;rounded=0;exitX=1;exitY=0.5;exitDx=0;exitDy=0;" edge="1" parent="1" source="0h7r7lTIpDEuKQg1K8eG-4">
          <mxGeometry width="50" height="50" relative="1" as="geometry">
            <mxPoint x="320" y="420" as="sourcePoint" />
            <mxPoint x="540" y="410" as="targetPoint" />
          </mxGeometry>
        </mxCell>
        <mxCell id="0h7r7lTIpDEuKQg1K8eG-7" value="match history" style="shape=process;whiteSpace=wrap;html=1;backgroundOutline=1;" vertex="1" parent="1">
          <mxGeometry x="600" y="300" width="120" height="60" as="geometry" />
        </mxCell>
        <mxCell id="0h7r7lTIpDEuKQg1K8eG-8" value="Player" style="rounded=1;whiteSpace=wrap;html=1;fillColor=#dae8fc;strokeColor=#6c8ebf;" vertex="1" parent="1">
          <mxGeometry x="600" y="260" width="120" height="40" as="geometry" />
        </mxCell>
        <mxCell id="0h7r7lTIpDEuKQg1K8eG-10" value="&lt;div&gt;game&lt;/div&gt;&lt;div&gt;players&lt;/div&gt;&lt;div&gt;(date)&lt;br&gt;&lt;/div&gt;" style="shape=process;whiteSpace=wrap;html=1;backgroundOutline=1;" vertex="1" parent="1">
          <mxGeometry x="600" y="430" width="120" height="60" as="geometry" />
        </mxCell>
        <mxCell id="0h7r7lTIpDEuKQg1K8eG-13" value="Game" style="rounded=1;whiteSpace=wrap;html=1;fillColor=#dae8fc;strokeColor=#6c8ebf;" vertex="1" parent="1">
          <mxGeometry x="750" y="260" width="120" height="40" as="geometry" />
        </mxCell>
        <mxCell id="0h7r7lTIpDEuKQg1K8eG-14" value="ruleset, maps ..." style="shape=process;whiteSpace=wrap;html=1;backgroundOutline=1;" vertex="1" parent="1">
          <mxGeometry x="750" y="300" width="120" height="60" as="geometry" />
        </mxCell>
        <mxCell id="0h7r7lTIpDEuKQg1K8eG-34" style="edgeStyle=orthogonalEdgeStyle;rounded=0;orthogonalLoop=1;jettySize=auto;html=1;exitX=1;exitY=0.5;exitDx=0;exitDy=0;entryX=0;entryY=0.5;entryDx=0;entryDy=0;" edge="1" parent="1" source="0h7r7lTIpDEuKQg1K8eG-15" target="0h7r7lTIpDEuKQg1K8eG-17">
          <mxGeometry relative="1" as="geometry" />
        </mxCell>
        <mxCell id="0h7r7lTIpDEuKQg1K8eG-15" value="User" style="whiteSpace=wrap;html=1;aspect=fixed;" vertex="1" parent="1">
          <mxGeometry x="230" y="550" width="80" height="80" as="geometry" />
        </mxCell>
        <mxCell id="0h7r7lTIpDEuKQg1K8eG-31" style="edgeStyle=orthogonalEdgeStyle;rounded=0;orthogonalLoop=1;jettySize=auto;html=1;" edge="1" parent="1" source="0h7r7lTIpDEuKQg1K8eG-17" target="0h7r7lTIpDEuKQg1K8eG-15">
          <mxGeometry relative="1" as="geometry" />
        </mxCell>
        <mxCell id="0h7r7lTIpDEuKQg1K8eG-17" value="find stats" style="shape=process;whiteSpace=wrap;html=1;backgroundOutline=1;" vertex="1" parent="1">
          <mxGeometry x="390" y="560" width="120" height="60" as="geometry" />
        </mxCell>
        <mxCell id="0h7r7lTIpDEuKQg1K8eG-19" value="" style="shape=flexArrow;endArrow=classic;html=1;rounded=0;entryX=1;entryY=0.4;entryDx=0;entryDy=0;entryPerimeter=0;exitX=0.028;exitY=0.949;exitDx=0;exitDy=0;exitPerimeter=0;" edge="1" parent="1" source="0h7r7lTIpDEuKQg1K8eG-12" target="0h7r7lTIpDEuKQg1K8eG-17">
          <mxGeometry width="50" height="50" relative="1" as="geometry">
            <mxPoint x="400" y="600" as="sourcePoint" />
            <mxPoint x="320" y="600" as="targetPoint" />
          </mxGeometry>
        </mxCell>
        <mxCell id="0h7r7lTIpDEuKQg1K8eG-20" value="" style="shape=flexArrow;endArrow=classic;html=1;rounded=0;exitX=0.5;exitY=1;exitDx=0;exitDy=0;" edge="1" parent="1" source="0h7r7lTIpDEuKQg1K8eG-12">
          <mxGeometry width="50" height="50" relative="1" as="geometry">
            <mxPoint x="558.0039999999999" y="562.1500000000001" as="sourcePoint" />
            <mxPoint x="734" y="630" as="targetPoint" />
          </mxGeometry>
        </mxCell>
        <mxCell id="0h7r7lTIpDEuKQg1K8eG-21" value="find stats" style="shape=process;whiteSpace=wrap;html=1;backgroundOutline=1;size=0.08333333333333333;" vertex="1" parent="1">
          <mxGeometry x="673.5" y="630" width="120" height="60" as="geometry" />
        </mxCell>
        <mxCell id="0h7r7lTIpDEuKQg1K8eG-28" style="edgeStyle=orthogonalEdgeStyle;rounded=0;orthogonalLoop=1;jettySize=auto;html=1;" edge="1" parent="1" source="0h7r7lTIpDEuKQg1K8eG-22" target="0h7r7lTIpDEuKQg1K8eG-24">
          <mxGeometry relative="1" as="geometry">
            <mxPoint x="650" y="790" as="targetPoint" />
          </mxGeometry>
        </mxCell>
        <mxCell id="0h7r7lTIpDEuKQg1K8eG-22" value="Visualizer?" style="whiteSpace=wrap;html=1;aspect=fixed;" vertex="1" parent="1">
          <mxGeometry x="690" y="750" width="80" height="80" as="geometry" />
        </mxCell>
        <mxCell id="0h7r7lTIpDEuKQg1K8eG-23" value="" style="shape=flexArrow;endArrow=classic;html=1;rounded=0;exitX=0.5;exitY=1;exitDx=0;exitDy=0;" edge="1" parent="1">
          <mxGeometry width="50" height="50" relative="1" as="geometry">
            <mxPoint x="733" y="690" as="sourcePoint" />
            <mxPoint x="733.5" y="750" as="targetPoint" />
          </mxGeometry>
        </mxCell>
        <mxCell id="0h7r7lTIpDEuKQg1K8eG-29" style="edgeStyle=orthogonalEdgeStyle;rounded=0;orthogonalLoop=1;jettySize=auto;html=1;exitX=0;exitY=0.5;exitDx=0;exitDy=0;entryX=1;entryY=0.5;entryDx=0;entryDy=0;" edge="1" parent="1" source="0h7r7lTIpDEuKQg1K8eG-24" target="0h7r7lTIpDEuKQg1K8eG-25">
          <mxGeometry relative="1" as="geometry" />
        </mxCell>
        <mxCell id="0h7r7lTIpDEuKQg1K8eG-24" value="find stats" style="shape=process;whiteSpace=wrap;html=1;backgroundOutline=1;" vertex="1" parent="1">
          <mxGeometry x="510" y="760" width="120" height="60" as="geometry" />
        </mxCell>
        <mxCell id="0h7r7lTIpDEuKQg1K8eG-25" value="User" style="whiteSpace=wrap;html=1;aspect=fixed;" vertex="1" parent="1">
          <mxGeometry x="350" y="750" width="80" height="80" as="geometry" />
        </mxCell>
        <mxCell id="0h7r7lTIpDEuKQg1K8eG-35" value="Match history?" style="rounded=1;whiteSpace=wrap;html=1;fillColor=#dae8fc;strokeColor=#6c8ebf;" vertex="1" parent="1">
          <mxGeometry x="910" y="260" width="120" height="40" as="geometry" />
        </mxCell>
        <mxCell id="0h7r7lTIpDEuKQg1K8eG-36" value="" style="shape=process;whiteSpace=wrap;html=1;backgroundOutline=1;" vertex="1" parent="1">
          <mxGeometry x="910" y="300" width="120" height="60" as="geometry" />
        </mxCell>
      </root>
    </mxGraphModel>
  </diagram>
</mxfile>
